<?xml version="1.0" encoding="UTF-8" standalone="no"?>
<!-- Created with Inkscape (http://www.inkscape.org/) -->

<svg
   width="334.3685mm"
   height="35.466084mm"
   viewBox="0 0 334.3685 35.466084"
   version="1.1"
   id="svg1"
   inkscape:version="1.3.2 (091e20e, 2023-11-25, custom)"
   sodipodi:docname="千葉設備工業株式会社＿白ロゴ.svg"
   xmlns:inkscape="http://www.inkscape.org/namespaces/inkscape"
   xmlns:sodipodi="http://sodipodi.sourceforge.net/DTD/sodipodi-0.dtd"
   xmlns="http://www.w3.org/2000/svg"
   xmlns:svg="http://www.w3.org/2000/svg">
  <sodipodi:namedview
     id="namedview1"
     pagecolor="#ffffff"
     bordercolor="#111111"
     borderopacity="1"
     inkscape:showpageshadow="0"
     inkscape:pageopacity="0"
     inkscape:pagecheckerboard="1"
     inkscape:deskcolor="#d1d1d1"
     inkscape:document-units="mm"
     inkscape:zoom="0.72426347"
     inkscape:cx="617.86907"
     inkscape:cy="119.43168"
     inkscape:window-width="1920"
     inkscape:window-height="1009"
     inkscape:window-x="1912"
     inkscape:window-y="-8"
     inkscape:window-maximized="1"
     inkscape:current-layer="layer1" />
  <defs
     id="defs1" />
  <g
     inkscape:label="Layer 1"
     inkscape:groupmode="layer"
     id="layer1">
    <path
       id="rect5-0-8-2-7-88-4-1"
       style="fill:#ffffff;fill-opacity:1;stroke:none;stroke-width:1.99123;stroke-dasharray:none;stroke-opacity:1"
       d="m 303.2631,1.461893 -1.6428,10.258806 h -2.95899 l -1.16996,4.970241 h 3.33262 l -1.61385,10.077933 h -4.55063 l -1.24024,5.2679 h 15.81041 l 1.24023,-5.2679 h -5.50819 l 1.61437,-10.077933 h 4.10879 l 1.17047,-4.970241 h -4.48344 L 309.0152,1.461893 Z m -34.12764,0.202569 -11.61944,11.917623 h 8.29768 l 6.93601,-7.114298 5.17075,7.114298 h 8.17521 L 277.43315,1.664462 Z m 21.53409,0.06666 -1.37252,5.829104 h 10.14873 l 1.37253,-5.829104 z m -47.60795,0.573097 0.90435,5.646161 h -11.38587 l -1.32602,5.631701 h 13.61364 l 3.13779,19.590022 h 5.22707 L 250.09477,13.582085 H 256.19 l 1.32602,-5.631701 h -8.323 l -0.90435,-5.646161 z m 8.90592,0 -1.0144,4.308782 h 6.37635 l 1.01492,-4.308782 z m -123.62088,0.318839 -0.41858,2.615344 h -1.98024 l -0.90072,3.827161 h 2.26808 l -0.22945,1.431434 h -2.9254 l -1.01803,4.323251 -2.33784,11.919685 c -0.14101,0.57403 -0.20424,1.16375 -0.86919,1.63299 l -1.14102,6.14794 c 3.72829,-0.2008 4.60376,-1.5275 5.65133,-7.78093 l 2.33785,-11.919685 h 13.75006 l 1.01803,-4.323251 h -3.41995 l 0.22945,-1.431434 h 3.2985 l 0.90124,-3.827161 h -3.58686 l 0.41909,-2.615344 h -4.55424 l -0.41858,2.615344 h -1.93838 l 0.41909,-2.615344 z m -8.25222,0.05683 -9.73067,17.838193 h 5.35058 l -2.3766,14.002762 h 4.72271 l 4.10156,-24.165451 4.18734,-7.675504 z m 53.93056,0.08576 2.69854,3.85713 h -2.98483 l -0.97565,4.143412 h 6.57065 l 0.34985,1.928565 h -4.40076 l -0.73742,3.132627 h 7.51065 l -0.17518,1.614368 h -6.59805 l -0.78703,3.342951 h 7.02179 l -0.15244,1.404053 h -10.7332 l -0.97565,4.143409 h 6.1464 l -6.94583,7.63519 h 5.52782 l 6.47403,-7.11636 -0.8015,7.3763 h 5.35729 l 0.83561,-7.68997 4.82503,7.43003 h 5.87768 l -4.95784,-7.63519 h 4.98058 l 0.97617,-4.143409 h -11.2293 l 0.15245,-1.404053 h 8.67182 l 0.78704,-3.342951 h -9.09558 l 0.17519,-1.614368 h 9.88725 l 0.73742,-3.132627 h -4.14755 l 0.77102,-1.928565 h 5.42086 l 0.97564,-4.143412 h -3.51606 l 2.69803,-3.85713 h -4.85294 l -2.69854,3.85713 h -1.079 l 0.37465,-3.543458 h -3.44372 l -0.37465,3.543458 h -1.11621 L 185.94983,3.07932 h -3.44423 l 1.09967,3.543458 h -2.02882 l -2.69854,-3.85713 z m 33.31993,0.247534 -0.89659,4.937158 h -2.42207 l -1.32602,5.631701 h 2.66754 l -0.96945,1.478461 0.19637,0.263035 -3.79822,4.293281 c -0.017,0.01929 -0.0335,0.05568 -0.0372,0.08109 l -1.23353,8.481135 c -0.004,0.0255 0.007,0.0301 0.0243,0.0109 l 4.05505,-4.583703 -1.86603,10.275353 h 4.23488 l 2.44171,-13.444664 1.93166,2.585364 2.19006,-3.340879 -0.41549,1.764753 h 1.19735 l -5.49321,12.435426 h 4.29586 l 3.96566,-8.977752 -1.81488,8.777242 h 4.40748 l 1.91616,-9.269206 0.4775,9.269206 h 3.39565 l -0.62942,-12.234916 h 2.77761 l 1.32292,-5.618779 h -5.09685 l 0.40773,-2.245342 h 4.38475 l 1.32601,-5.631701 h -4.68809 l 0.86197,-4.74751 h -4.16306 l -0.86248,4.74751 h -1.69912 l 0.86197,-4.74751 h -4.05557 l -0.86196,4.74751 h -3.67265 L 211.5798,3.013187 Z M 87.416309,3.419352 86.522824,7.213439 h 9.990605 l 0.893485,-3.794087 z m 11.769307,0 c -0.976911,3.158471 -1.207474,10.338421 -2.930569,9.475394 l -0.975652,4.440036 h 5.208985 l 1.59732,-8.382435 h 2.10478 l -1.40302,8.382435 h 6.7815 l 1.05265,-4.851383 -2.12803,-0.607708 1.54357,-8.456339 z M 61.714518,3.602802 61.4427,5.299859 h -4.379577 l -0.91209,3.874178 h 4.671549 l -0.368969,2.302703 h -4.174422 l -0.912087,3.874188 h 3.01842 l -0.249082,1.494994 h 4.825546 l 0.249081,-1.494994 h 2.412256 l -2e-6,1.49551 h -7.491532 l -0.840776,3.569808 h 6.762895 l -0.139526,1.286226 h -9.869682 l -1.110526,4.715991 h 6.023405 l -7.387144,8.12044 h 5.575887 l 6.101953,-6.7076 -0.753444,6.93549 h 5.455998 l 0.818554,-7.53804 3.684014,7.17166 h 5.927804 l -4.10001,-7.98195 h 4.642611 l 1.110009,-4.715991 H 69.369865 l 0.139526,-1.286226 h 2.790527 4.946985 l 0.718821,-5.065318 h 3.286105 l 0.912087,-3.874182 h -5.316472 l 0.36897,-2.302703 h 4.819344 l 0.91209,-3.874178 h -5.110799 l 0.271817,-1.697057 h -4.554244 l -0.271817,1.697057 h -7.285861 l 0.271818,-1.697057 z m -31.368106,0.03878 -3.646807,5.962422 h 10.738362 l -1.056781,5.06016 H 25.605099 l -1.40405,5.962422 h 10.93525 l -3.004984,14.388787 h 7.169072 L 42.30537,20.626586 h 9.22476 l 1.404051,-5.962422 h -9.383924 l 1.056782,-5.06016 h 6.577376 l 3.646808,-5.962422 z m 115.763478,2.627741 -0.76378,6.425447 h 7.62176 l -1.48157,13.637413 h -10.21126 l -0.76378,6.42545 h 25.73177 0.54156 l 0.76378,-6.42545 h -9.69811 l 1.48156,-13.637412 h 8.63927 l 0.76377,-6.425447 z M 85.490331,8.644888 84.497628,12.86014 H 95.850424 L 96.84261,8.644888 Z M 131.8689,9.065537 h 1.93838 l -0.22944,1.431435 h -1.93839 z M 65.376313,9.174052 h 7.286376 l -0.368969,2.302703 h -7.286377 z m 222.914567,0.09922 -1.18339,5.027087 h 2.82722 l -0.30851,1.925461 -3.64112,4.116546 c -0.017,0.01929 -0.0335,0.05511 -0.0372,0.08061 l -1.23351,8.481127 c -0.004,0.0255 0.007,0.0301 0.0243,0.0109 l 3.48661,-3.94084 -1.24696,7.7835 h 4.00028 l 2.1177,-13.222955 3.47007,2.624121 0.23461,-6.073009 -1.85777,-1.405084 4.18941,-5.407423 h -4.01422 z m -105.70312,1.492934 h 8.46926 l -0.77101,1.928565 h -7.34788 z m 27.07277,2.81585 h 9.42733 l -0.40773,2.245342 h -5.23533 l -0.62167,2.641178 -3.2582,-4.36045 z M 85.490331,13.87041 84.596847,17.664496 h 9.990604 l 0.893485,-3.794086 z m 176.326199,0.429952 -0.9524,4.044199 h 19.73367 l 0.95189,-4.044199 z M 69.846326,15.350944 h 3.521232 l -0.227378,1.49551 h -3.293856 z m 135.155054,0.516242 0.008,0.01032 -0.046,0.252185 z m -76.94259,0.229445 -3.61321,18.424202 h 3.0365 l 1.52601,-7.78092 h 1.57716 l -1.12189,5.72006 h 2.58692 l 1.1219,-5.72006 h 1.79937 l -1.52601,7.78092 h 3.03651 l 3.61373,-18.424202 h -2.80603 -6.19393 z m 102.57721,0.84956 -1.28675,5.466331 h 3.73776 l -0.50746,4.674661 h 0.0222 l -3.54138,0.30488 -1.62523,5.78002 16.51062,-1.74564 0.18707,-5.33197 -6.08129,0.52348 0.45682,-4.205431 h 3.6742 l 1.28726,-5.466331 z m -134.421776,1.425752 -0.860411,3.654045 h 5.620847 l -0.18965,0.806668 h -6.562394 l 3.177065,4.892207 -6.056993,6.65799 h 5.707145 l 2.726964,-2.99723 1.946133,2.99723 h 6.56808 l -4.68189,-7.21041 4.68189,-5.146455 0.86041,-3.654045 z m -11.980662,0.294045 -0.893488,3.794078 h 9.990605 l 0.893488,-3.794078 z m 46.192008,0.847488 h 1.57717 l -0.19689,1.004596 h -1.57716 z m 4.16409,0 h 1.79937 l -0.19688,1.004596 h -1.79937 z m 123.21884,0.37621 -0.97565,4.143412 h 3.60237 l -4.38114,8.379845 6.50297,1.22112 0.65681,-1.25574 h 17.93378 l -1.079,-2.63395 -2.15749,-5.337137 -4.99917,1.573547 0.64594,1.59732 h -7.83414 l 1.85364,-3.545005 h 15.03164 l 0.97564,-4.143412 z M 129.74086,23.00474 h 1.57717 l -0.19689,1.004586 h -1.57717 z m 4.16409,0 h 1.79937 l -0.19689,1.004586 h -1.79937 z m -50.703368,0.274916 -2.61431,11.103197 h 10.12393 l 2.614319,-11.103169 z m 2.786393,4.051427 h 2.64325 l -0.706416,3.00034 H 85.28156 Z" />
    <path
       style="fill:#b1d9ff;fill-opacity:1;stroke:none;stroke-width:2;stroke-dasharray:none;stroke-opacity:1"
       d="M 12.283641,35.466083 H 0 V 0 h 21.823204 z"
       id="path4" />
    <path
       style="fill:#b1d9ff;fill-opacity:1;stroke:none;stroke-width:2;stroke-dasharray:none;stroke-opacity:1"
       d="M 322.08486,0 H 334.3685 V 35.466083 H 312.5453 Z"
       id="path4-9" />
  </g>
</svg>
